<?xml version="1.0" encoding="utf-8"?>
<!-- Generator: Adobe Illustrator 16.0.0, SVG Export Plug-In . SVG Version: 6.00 Build 0)  -->
<!DOCTYPE svg PUBLIC "-//W3C//DTD SVG 1.1//EN" "http://www.w3.org/Graphics/SVG/1.1/DTD/svg11.dtd">
<svg version="1.1" id="Calque_1" xmlns="http://www.w3.org/2000/svg" xmlns:xlink="http://www.w3.org/1999/xlink" x="0px" y="0px"
	 width="56.735px" height="57.531px" viewBox="0 0 56.735 57.531" enable-background="new 0 0 56.735 57.531" xml:space="preserve">
<path fill="#FFFFFF" d="M28.367,5.766c0.754,0,1.505,0.037,2.254,0.11c0.75,0.074,1.494,0.185,2.233,0.331
	c0.739,0.147,1.468,0.33,2.189,0.549c0.721,0.219,1.429,0.473,2.125,0.761s1.376,0.609,2.04,0.965
	c0.664,0.354,1.311,0.742,1.937,1.16c0.626,0.419,1.23,0.867,1.813,1.345c0.583,0.478,1.14,0.983,1.673,1.516
	c0.532,0.533,1.037,1.09,1.516,1.673c0.479,0.582,0.926,1.187,1.345,1.813s0.806,1.271,1.16,1.937
	c0.354,0.664,0.677,1.344,0.965,2.04s0.542,1.404,0.761,2.125s0.401,1.451,0.549,2.189c0.146,0.739,0.257,1.483,0.33,2.233
	c0.074,0.749,0.111,1.501,0.111,2.254s-0.037,1.505-0.111,2.254c-0.073,0.75-0.184,1.494-0.33,2.233
	c-0.147,0.738-0.33,1.469-0.549,2.189s-0.473,1.429-0.761,2.125s-0.61,1.376-0.965,2.04s-0.741,1.31-1.16,1.937
	c-0.419,0.626-0.866,1.23-1.345,1.813s-0.983,1.14-1.516,1.673c-0.533,0.532-1.09,1.037-1.673,1.516
	c-0.582,0.478-1.187,0.926-1.813,1.345c-0.626,0.418-1.272,0.805-1.937,1.16s-1.344,0.677-2.04,0.965s-1.404,0.542-2.125,0.761
	c-0.722,0.219-1.45,0.401-2.189,0.548c-0.739,0.147-1.483,0.258-2.233,0.331c-0.749,0.074-1.5,0.111-2.254,0.111
	s-1.505-0.037-2.254-0.111c-0.75-0.073-1.494-0.184-2.233-0.331c-0.739-0.146-1.468-0.329-2.189-0.548
	c-0.721-0.219-1.429-0.473-2.125-0.761s-1.376-0.609-2.04-0.965s-1.311-0.742-1.937-1.16c-0.626-0.419-1.23-0.867-1.813-1.345
	c-0.583-0.479-1.14-0.983-1.673-1.516c-0.532-0.533-1.037-1.091-1.516-1.673s-0.926-1.187-1.345-1.813
	c-0.419-0.627-0.806-1.272-1.16-1.937s-0.677-1.344-0.965-2.04s-0.542-1.404-0.761-2.125s-0.401-1.451-0.549-2.189
	c-0.146-0.739-0.257-1.483-0.33-2.233c-0.074-0.749-0.111-1.501-0.111-2.254s0.037-1.505,0.111-2.254
	c0.073-0.75,0.184-1.494,0.33-2.233c0.147-0.738,0.33-1.469,0.549-2.189s0.473-1.429,0.761-2.125s0.61-1.376,0.965-2.04
	c0.354-0.665,0.741-1.311,1.16-1.937s0.866-1.23,1.345-1.813c0.479-0.583,0.983-1.14,1.516-1.673
	c0.533-0.532,1.09-1.038,1.673-1.516c0.582-0.478,1.187-0.926,1.813-1.345c0.626-0.418,1.272-0.806,1.937-1.16
	c0.664-0.355,1.344-0.677,2.04-0.965s1.404-0.542,2.125-0.761c0.722-0.219,1.45-0.401,2.189-0.549
	c0.739-0.146,1.483-0.257,2.233-0.331C26.862,5.803,27.613,5.766,28.367,5.766z"/>
<polygon fill="none" stroke="#2EB991" stroke-width="2" stroke-linecap="round" stroke-linejoin="round" points="32.367,36.766 
	41.367,29.766 32.367,22.766 "/>
<polygon fill="none" stroke="#2EB991" stroke-width="2" stroke-linecap="round" stroke-linejoin="round" points="21.367,36.766 
	30.367,29.766 21.367,22.766 "/>
</svg>
