<?xml version="1.0" encoding="utf-8"?>
<!-- Generator: Adobe Illustrator 16.0.0, SVG Export Plug-In . SVG Version: 6.00 Build 0)  -->
<!DOCTYPE svg PUBLIC "-//W3C//DTD SVG 1.1//EN" "http://www.w3.org/Graphics/SVG/1.1/DTD/svg11.dtd">
<svg version="1.1" id="Calque_1" xmlns="http://www.w3.org/2000/svg" xmlns:xlink="http://www.w3.org/1999/xlink" x="0px" y="0px"
	 width="163.492px" height="167.204px" viewBox="0 0 163.492 167.204" enable-background="new 0 0 163.492 167.204"
	 xml:space="preserve">
<path opacity="0.1412" fill="#89CFBD" d="M81.403,26.631c1.801,0,3.598,0.088,5.391,0.263c1.792,0.175,3.572,0.437,5.339,0.784
	c1.767,0.349,3.512,0.781,5.236,1.3c1.724,0.519,3.417,1.119,5.082,1.802c1.665,0.684,3.291,1.445,4.879,2.287
	c1.589,0.841,3.132,1.758,4.63,2.749c1.498,0.992,2.942,2.054,4.335,3.187c1.393,1.132,2.726,2.329,3.999,3.592
	c1.273,1.262,2.482,2.583,3.625,3.963s2.215,2.812,3.215,4.296c1.001,1.483,1.926,3.013,2.775,4.587s1.618,3.186,2.308,4.835
	s1.296,3.328,1.818,5.036s0.96,3.438,1.312,5.188c0.352,1.751,0.615,3.515,0.792,5.291s0.265,3.557,0.265,5.342
	s-0.088,3.565-0.265,5.342s-0.44,3.54-0.792,5.291c-0.352,1.75-0.789,3.479-1.312,5.188s-1.129,3.387-1.818,5.036
	c-0.689,1.648-1.458,3.261-2.308,4.835s-1.774,3.104-2.775,4.587c-1,1.484-2.072,2.916-3.215,4.296s-2.352,2.701-3.625,3.963
	c-1.273,1.263-2.606,2.46-3.999,3.592c-1.393,1.133-2.837,2.194-4.335,3.187c-1.498,0.991-3.041,1.908-4.63,2.749
	c-1.588,0.842-3.215,1.604-4.879,2.287c-1.664,0.683-3.358,1.283-5.082,1.802c-1.724,0.519-3.469,0.951-5.236,1.3
	c-1.767,0.348-3.546,0.609-5.339,0.784c-1.793,0.175-3.59,0.263-5.391,0.263s-3.598-0.088-5.391-0.263
	c-1.792-0.175-3.572-0.437-5.339-0.784c-1.767-0.349-3.512-0.781-5.236-1.3c-1.724-0.519-3.417-1.119-5.082-1.802
	c-1.664-0.684-3.291-1.445-4.879-2.287c-1.589-0.841-3.132-1.758-4.629-2.749c-1.498-0.992-2.943-2.054-4.335-3.187
	c-1.393-1.132-2.726-2.329-4-3.592c-1.273-1.262-2.482-2.583-3.625-3.963s-2.214-2.812-3.215-4.296
	c-1-1.483-1.926-3.013-2.775-4.587s-1.618-3.187-2.308-4.835c-0.689-1.649-1.295-3.328-1.818-5.036s-0.96-3.438-1.312-5.188
	c-0.351-1.751-0.615-3.515-0.792-5.291c-0.176-1.776-0.265-3.557-0.265-5.342s0.088-3.565,0.265-5.342
	c0.177-1.776,0.441-3.54,0.792-5.291c0.352-1.75,0.789-3.479,1.312-5.188s1.129-3.387,1.818-5.036s1.458-3.261,2.308-4.835
	s1.774-3.104,2.775-4.587c1.001-1.484,2.073-2.916,3.215-4.296s2.351-2.701,3.625-3.963c1.274-1.263,2.607-2.46,4-3.592
	c1.393-1.133,2.837-2.194,4.335-3.187c1.498-0.991,3.041-1.908,4.63-2.749c1.588-0.842,3.215-1.604,4.879-2.287
	c1.665-0.683,3.358-1.283,5.082-1.802c1.724-0.519,3.469-0.951,5.236-1.3c1.767-0.348,3.546-0.609,5.339-0.784
	C77.805,26.719,79.602,26.631,81.403,26.631z"/>
<path opacity="0.1412" fill="#89CFBD" d="M81.403,7.631c1.211,0,2.421,0.029,3.631,0.089c1.21,0.06,2.417,0.148,3.623,0.268
	c1.205,0.118,2.407,0.267,3.604,0.444c1.198,0.178,2.391,0.385,3.579,0.621c1.188,0.236,2.369,0.502,3.544,0.796
	s2.342,0.617,3.5,0.969c1.159,0.352,2.309,0.731,3.449,1.14c1.141,0.407,2.27,0.844,3.389,1.307c1.119,0.464,2.227,0.954,3.32,1.472
	c1.096,0.519,2.177,1.063,3.244,1.634c1.068,0.57,2.122,1.167,3.16,1.79c1.039,0.622,2.063,1.271,3.069,1.942
	c1.007,0.674,1.997,1.37,2.97,2.092s1.927,1.467,2.863,2.234c0.936,0.769,1.853,1.56,2.75,2.373
	c0.897,0.813,1.774,1.647,2.631,2.504c0.855,0.856,1.691,1.733,2.504,2.631c0.813,0.897,1.604,1.814,2.373,2.75
	c0.768,0.937,1.513,1.891,2.234,2.863c0.721,0.973,1.418,1.963,2.092,2.97c0.672,1.007,1.32,2.03,1.942,3.068
	c0.623,1.039,1.22,2.093,1.79,3.16c0.571,1.068,1.115,2.149,1.633,3.245c0.519,1.095,1.01,2.201,1.473,3.32s0.898,2.248,1.307,3.389
	c0.408,1.14,0.788,2.29,1.14,3.448c0.352,1.159,0.675,2.326,0.969,3.501s0.56,2.355,0.796,3.544
	c0.236,1.188,0.443,2.381,0.621,3.578c0.178,1.198,0.326,2.399,0.444,3.605c0.118,1.205,0.208,2.412,0.267,3.622
	c0.061,1.209,0.09,2.42,0.09,3.631s-0.029,2.422-0.09,3.631c-0.059,1.21-0.148,2.417-0.267,3.622
	c-0.118,1.206-0.267,2.407-0.444,3.605c-0.178,1.197-0.385,2.391-0.621,3.578s-0.502,2.369-0.796,3.544s-0.617,2.342-0.969,3.5
	c-0.352,1.159-0.731,2.309-1.14,3.449s-0.844,2.27-1.307,3.389s-0.954,2.226-1.473,3.32c-0.518,1.095-1.062,2.177-1.633,3.244
	c-0.57,1.068-1.167,2.122-1.79,3.161c-0.622,1.038-1.271,2.062-1.942,3.068c-0.674,1.007-1.371,1.997-2.092,2.97
	c-0.722,0.973-1.467,1.927-2.234,2.863c-0.769,0.936-1.56,1.853-2.373,2.75c-0.813,0.897-1.648,1.774-2.504,2.631
	c-0.856,0.855-1.733,1.69-2.631,2.504s-1.814,1.604-2.75,2.373c-0.937,0.768-1.891,1.513-2.863,2.234
	c-0.973,0.721-1.963,1.418-2.97,2.091s-2.03,1.321-3.069,1.943c-1.038,0.623-2.092,1.22-3.16,1.79
	c-1.067,0.571-2.148,1.115-3.244,1.634c-1.094,0.518-2.201,1.008-3.32,1.472c-1.119,0.463-2.248,0.899-3.389,1.307
	c-1.14,0.408-2.29,0.788-3.449,1.14c-1.159,0.352-2.326,0.675-3.5,0.969s-2.356,0.56-3.544,0.796
	c-1.188,0.236-2.38,0.443-3.579,0.621c-1.198,0.178-2.399,0.326-3.604,0.444c-1.206,0.119-2.413,0.208-3.623,0.268
	c-1.209,0.06-2.42,0.089-3.631,0.089s-2.421-0.029-3.631-0.089c-1.21-0.06-2.417-0.148-3.623-0.268
	c-1.205-0.118-2.407-0.267-3.604-0.444c-1.198-0.178-2.391-0.385-3.579-0.621c-1.188-0.236-2.369-0.502-3.544-0.796
	s-2.342-0.617-3.5-0.969c-1.159-0.352-2.309-0.731-3.449-1.14c-1.141-0.407-2.27-0.844-3.389-1.307
	c-1.119-0.464-2.226-0.954-3.321-1.472c-1.095-0.519-2.176-1.063-3.244-1.634c-1.068-0.57-2.122-1.167-3.16-1.79
	c-1.039-0.622-2.062-1.271-3.069-1.943s-1.997-1.37-2.969-2.091c-0.973-0.722-1.927-1.467-2.864-2.234
	c-0.936-0.769-1.853-1.56-2.75-2.373s-1.774-1.648-2.63-2.504c-0.856-0.856-1.691-1.733-2.505-2.631
	c-0.813-0.897-1.604-1.814-2.372-2.75c-0.769-0.937-1.513-1.891-2.235-2.863c-0.721-0.973-1.418-1.963-2.091-2.97
	s-1.32-2.03-1.943-3.068c-0.623-1.039-1.22-2.093-1.791-3.161c-0.571-1.067-1.115-2.149-1.633-3.244
	c-0.518-1.095-1.009-2.201-1.472-3.32s-0.899-2.248-1.307-3.389c-0.408-1.141-0.788-2.29-1.139-3.449
	c-0.352-1.158-0.675-2.325-0.969-3.5c-0.294-1.175-0.56-2.356-0.796-3.544s-0.443-2.381-0.621-3.578
	c-0.178-1.198-0.326-2.399-0.444-3.605c-0.119-1.205-0.208-2.412-0.267-3.622c-0.06-1.209-0.089-2.42-0.089-3.631
	S7.433,79.209,7.493,78c0.059-1.21,0.148-2.417,0.267-3.622c0.119-1.206,0.267-2.407,0.444-3.605
	c0.178-1.197,0.385-2.391,0.621-3.578c0.236-1.188,0.501-2.369,0.796-3.544c0.294-1.175,0.617-2.342,0.969-3.501
	c0.352-1.158,0.731-2.309,1.139-3.448c0.408-1.141,0.844-2.27,1.307-3.389s0.954-2.226,1.472-3.32
	c0.518-1.096,1.062-2.177,1.633-3.245c0.571-1.067,1.167-2.121,1.791-3.16c0.623-1.038,1.27-2.062,1.943-3.068
	s1.37-1.997,2.091-2.97c0.722-0.973,1.466-1.927,2.235-2.863c0.768-0.936,1.559-1.853,2.372-2.75
	c0.813-0.897,1.648-1.774,2.505-2.631c0.856-0.856,1.733-1.691,2.63-2.504c0.897-0.813,1.814-1.604,2.75-2.373
	c0.937-0.768,1.891-1.513,2.864-2.234c0.973-0.722,1.962-1.418,2.969-2.092c1.007-0.672,2.03-1.32,3.069-1.942
	c1.039-0.623,2.092-1.22,3.16-1.79c1.068-0.571,2.149-1.115,3.244-1.634c1.095-0.518,2.202-1.008,3.321-1.472
	c1.119-0.463,2.248-0.899,3.389-1.307c1.14-0.408,2.29-0.788,3.449-1.14c1.159-0.352,2.326-0.675,3.5-0.969s2.356-0.56,3.544-0.796
	c1.188-0.236,2.38-0.443,3.579-0.621c1.198-0.178,2.399-0.326,3.604-0.444c1.206-0.119,2.413-0.208,3.623-0.268
	C78.982,7.661,80.192,7.631,81.403,7.631z"/>
<path fill="#FFFFFF" d="M80.903,34.631c1.523,0,3.042,0.074,4.558,0.224s3.021,0.373,4.514,0.67s2.969,0.667,4.426,1.108
	c1.458,0.442,2.89,0.955,4.297,1.537c1.407,0.583,2.782,1.233,4.125,1.951c1.343,0.719,2.648,1.5,3.914,2.347
	c1.266,0.846,2.488,1.752,3.665,2.718c1.178,0.967,2.305,1.988,3.382,3.064c1.076,1.077,2.098,2.204,3.064,3.382
	c0.966,1.177,1.872,2.398,2.718,3.665c0.847,1.267,1.628,2.571,2.347,3.914c0.717,1.343,1.367,2.718,1.951,4.125
	c0.582,1.407,1.095,2.839,1.537,4.297c0.441,1.457,0.812,2.933,1.108,4.426c0.298,1.494,0.521,2.999,0.669,4.515
	c0.15,1.516,0.225,3.034,0.225,4.558c0,1.522-0.074,3.042-0.225,4.558c-0.148,1.516-0.371,3.021-0.669,4.514
	c-0.297,1.494-0.667,2.97-1.108,4.427c-0.442,1.457-0.955,2.89-1.537,4.297c-0.584,1.406-1.234,2.782-1.951,4.125
	c-0.719,1.343-1.5,2.647-2.347,3.914c-0.846,1.267-1.752,2.488-2.718,3.665c-0.967,1.178-1.988,2.305-3.064,3.382
	c-1.077,1.076-2.204,2.098-3.382,3.064c-1.177,0.966-2.399,1.872-3.665,2.718c-1.266,0.847-2.571,1.628-3.914,2.347
	c-1.343,0.718-2.718,1.368-4.125,1.95c-1.407,0.583-2.839,1.096-4.297,1.538c-1.457,0.441-2.933,0.812-4.426,1.108
	s-2.999,0.521-4.514,0.67s-3.035,0.224-4.558,0.224s-3.042-0.074-4.558-0.224s-3.021-0.373-4.514-0.67s-2.969-0.667-4.426-1.108
	c-1.458-0.442-2.89-0.955-4.297-1.538c-1.407-0.582-2.782-1.232-4.125-1.95c-1.343-0.719-2.648-1.5-3.914-2.347
	c-1.266-0.846-2.488-1.752-3.666-2.718c-1.177-0.967-2.304-1.988-3.381-3.064c-1.077-1.077-2.099-2.204-3.064-3.382
	c-0.966-1.177-1.873-2.398-2.719-3.665c-0.846-1.267-1.628-2.571-2.346-3.914s-1.368-2.719-1.951-4.125
	c-0.583-1.407-1.095-2.84-1.537-4.297c-0.442-1.457-0.812-2.933-1.109-4.427c-0.297-1.493-0.521-2.998-0.669-4.514
	c-0.149-1.516-0.224-3.035-0.224-4.558c0-1.523,0.075-3.042,0.224-4.558c0.149-1.516,0.372-3.021,0.669-4.515
	c0.297-1.493,0.667-2.969,1.109-4.426c0.442-1.458,0.955-2.89,1.537-4.297c0.583-1.407,1.233-2.782,1.951-4.125
	s1.5-2.647,2.346-3.914c0.846-1.267,1.752-2.488,2.719-3.665c0.966-1.178,1.987-2.305,3.064-3.382
	c1.077-1.076,2.204-2.098,3.381-3.064c1.177-0.966,2.399-1.872,3.666-2.718c1.266-0.847,2.571-1.628,3.914-2.347
	c1.343-0.718,2.718-1.368,4.125-1.951c1.407-0.582,2.839-1.095,4.297-1.537c1.457-0.441,2.933-0.812,4.426-1.108
	s2.999-0.521,4.514-0.67S79.38,34.631,80.903,34.631z"/>
<polygon fill="none" stroke="#2EB991" stroke-width="2" stroke-linecap="round" stroke-linejoin="round" points="73.903,65.881 
	98.403,81.631 73.903,97.381 "/>
</svg>
