<?xml version="1.0" encoding="utf-8"?>
<!-- Generator: Adobe Illustrator 16.0.0, SVG Export Plug-In . SVG Version: 6.00 Build 0)  -->
<!DOCTYPE svg PUBLIC "-//W3C//DTD SVG 1.1//EN" "http://www.w3.org/Graphics/SVG/1.1/DTD/svg11.dtd">
<svg version="1.1" id="Calque_1" xmlns="http://www.w3.org/2000/svg" xmlns:xlink="http://www.w3.org/1999/xlink" x="0px" y="0px"
	 width="56.735px" height="57.531px" viewBox="0 0 56.735 57.531" enable-background="new 0 0 56.735 57.531" xml:space="preserve">
<path fill="#FFFFFF" d="M28.367,5.766c0.753,0,1.505,0.037,2.254,0.11c0.75,0.074,1.494,0.185,2.233,0.331
	c0.738,0.147,1.469,0.33,2.189,0.549s1.429,0.473,2.125,0.761s1.376,0.609,2.04,0.965c0.665,0.354,1.31,0.742,1.937,1.16
	c0.626,0.419,1.23,0.867,1.813,1.345s1.14,0.983,1.673,1.516c0.532,0.533,1.038,1.09,1.516,1.673
	c0.478,0.582,0.926,1.187,1.345,1.813c0.418,0.626,0.805,1.271,1.16,1.937c0.355,0.664,0.677,1.344,0.965,2.04
	s0.542,1.404,0.761,2.125s0.401,1.451,0.548,2.189c0.147,0.739,0.258,1.483,0.332,2.233c0.073,0.749,0.11,1.501,0.11,2.254
	s-0.037,1.505-0.11,2.254c-0.074,0.75-0.185,1.494-0.332,2.233c-0.146,0.738-0.329,1.469-0.548,2.189s-0.473,1.429-0.761,2.125
	s-0.609,1.376-0.965,2.04s-0.742,1.31-1.16,1.937c-0.419,0.626-0.867,1.23-1.345,1.813s-0.983,1.14-1.516,1.673
	c-0.533,0.532-1.091,1.037-1.673,1.516c-0.582,0.478-1.187,0.926-1.813,1.345c-0.627,0.418-1.271,0.805-1.937,1.16
	c-0.664,0.355-1.344,0.677-2.04,0.965s-1.404,0.542-2.125,0.761s-1.451,0.401-2.189,0.548c-0.739,0.147-1.483,0.258-2.233,0.331
	c-0.749,0.074-1.501,0.111-2.254,0.111s-1.505-0.037-2.254-0.111c-0.75-0.073-1.494-0.184-2.233-0.331
	c-0.738-0.146-1.469-0.329-2.189-0.548s-1.429-0.473-2.125-0.761s-1.376-0.609-2.04-0.965c-0.665-0.355-1.31-0.742-1.937-1.16
	c-0.626-0.419-1.23-0.867-1.813-1.345c-0.583-0.479-1.14-0.983-1.673-1.516c-0.532-0.533-1.038-1.091-1.516-1.673
	s-0.926-1.187-1.345-1.813c-0.418-0.627-0.805-1.272-1.16-1.937s-0.677-1.344-0.965-2.04s-0.542-1.404-0.761-2.125
	s-0.401-1.451-0.548-2.189c-0.147-0.739-0.258-1.483-0.332-2.233c-0.073-0.749-0.11-1.501-0.11-2.254s0.037-1.505,0.11-2.254
	c0.074-0.75,0.185-1.494,0.332-2.233c0.146-0.738,0.329-1.469,0.548-2.189s0.473-1.429,0.761-2.125s0.609-1.376,0.965-2.04
	c0.355-0.665,0.742-1.311,1.16-1.937c0.419-0.626,0.867-1.23,1.345-1.813c0.478-0.583,0.983-1.14,1.516-1.673
	c0.533-0.532,1.09-1.038,1.673-1.516c0.582-0.478,1.187-0.926,1.813-1.345c0.627-0.418,1.271-0.806,1.937-1.16
	c0.664-0.355,1.344-0.677,2.04-0.965s1.404-0.542,2.125-0.761s1.451-0.401,2.189-0.549c0.739-0.146,1.483-0.257,2.233-0.331
	C26.862,5.803,27.614,5.766,28.367,5.766z"/>
<polyline fill="none" stroke="#2EB991" stroke-width="2" stroke-linecap="round" stroke-linejoin="round" points="32.367,20.766 
	37.367,20.766 37.367,25.766 "/>
<line fill="none" stroke="#2EB991" stroke-width="2" stroke-linecap="round" stroke-linejoin="round" x1="20.367" y1="37.766" x2="37.367" y2="20.766"/>
<polyline fill="none" stroke="#2EB991" stroke-width="2" stroke-linecap="round" stroke-linejoin="round" points="37.367,33.766 
	37.367,38.766 32.367,38.766 "/>
<line fill="none" stroke="#2EB991" stroke-width="2" stroke-linecap="round" stroke-linejoin="round" x1="31.367" y1="32.766" x2="37.367" y2="38.766"/>
<line fill="none" stroke="#2EB991" stroke-width="2" stroke-linecap="round" stroke-linejoin="round" x1="20.367" y1="21.766" x2="25.367" y2="26.766"/>
</svg>
